<svg xmlns="http://www.w3.org/2000/svg" width="24" height="24" viewBox="0 0 24 24" fill="none" stroke="currentColor" stroke-width="2" stroke-linecap="round" stroke-linejoin="round">
  <path d="M21.73 3.73L2.77 11.58c-.64.32-.95 1.08-.71 1.77.24.69.95 1.14 1.7 1.12l7.44-.23 2.45 7.4c.27.82 1.16 1.3 2 1.06.84-.24 1.36-1.09 1.19-1.95l-2.78-14.01c-.17-.86-1.02-1.44-1.91-1.3-.89.14-1.52.9-1.5 1.81l.18 7.66-5.1.16L19.04 6.5l.55-1.42c.23-.6-.01-1.28-.57-1.57-.56-.29-1.24-.19-1.66.27L9.82 13.37l.05-2.17c.01-.41-.33-.74-.74-.73-.41.01-.74.34-.73.75l-.09 3.79c-.01.46.37.83.83.82l7.62-.24-1.79-5.42L22.2 4.93c.37-.28.44-.8.16-1.16-.28-.37-.79-.44-1.16-.16l.53.12z"/>
</svg>

