<svg width="100" height="100" viewBox="0 0 100 100" fill="none" xmlns="http://www.w3.org/2000/svg">
<path d="M14.3439 14.3439C-2.35823 31.0461 -4.23965 56.2519 7.47508 75.4153C9.24123 78.3045 13.2141 78.5213 15.6085 76.1269L20.0289 71.7065C22.0067 69.7287 22.2011 66.6239 20.8565 64.1712C14.0498 51.7546 15.0349 36.5065 25.6415 25.8998C36.2554 15.286 51.7256 14.0981 64.2264 20.8404C66.6798 22.1636 69.7713 21.9639 71.7424 19.9928L76.1266 15.6086C78.521 13.2142 78.3042 9.24126 75.4151 7.47511C56.2517 -4.23967 31.046 -2.35824 14.3439 14.3439Z" fill="#F0B90B"/>
<path d="M80.0011 28.1711C78.0238 30.1484 77.83 33.2519 79.1639 35.7096C85.9837 48.2747 84.6843 63.824 74.1251 74.3832C63.5752 84.9331 48.2266 85.9843 35.77 79.133C33.3136 77.782 30.2003 77.9721 28.218 79.9544L23.7997 84.3727C21.4105 86.7619 21.6201 90.7251 24.4979 92.4958C43.6693 104.292 68.9178 102.315 85.6164 85.6163C102.315 68.9177 104.292 43.6691 92.4958 24.4976C90.7252 21.6198 86.762 21.4102 84.3727 23.7995L80.0011 28.1711Z" fill="#F0B90B"/>
<path d="M38.74 36.008L49.6793 29.8347L60.6186 36.008L56.5968 38.2887L49.6793 34.3959L42.7618 38.2887L38.74 36.008ZM60.6186 43.7936L56.5968 41.513L49.6793 45.4057L42.7618 41.513L38.74 43.7936V48.3549L45.6575 52.2476V60.0331L49.6793 62.3137L53.7011 60.0331V52.2476L60.6186 48.3549V43.7936ZM60.6186 56.1404V51.5792L56.5968 53.8598V58.421L60.6186 56.1404ZM63.4742 57.7525L56.5567 61.6453V66.2064L67.496 60.0331V47.6862L63.4742 49.967V57.7525ZM59.4524 39.9008L63.4742 42.1814V46.7427L67.496 44.462V39.9008L63.4742 37.6202L59.4524 39.9008ZM45.6575 63.2967V67.8579L49.6793 70.1385L53.7011 67.8579V63.2967L49.6793 65.5773L45.6575 63.2967ZM38.74 56.1404L42.7618 58.421V53.8598L38.74 51.5792V56.1404ZM45.6575 39.9008L49.6793 42.1814L53.7011 39.9008L49.6793 37.6202L45.6575 39.9008ZM35.8845 42.1814L39.9063 39.9008L35.8845 37.6202L31.8627 39.9008V44.462L35.8845 46.7427V42.1814ZM35.8845 49.967L31.8627 47.6862V60.0331L42.802 66.2064V61.6453L35.8845 57.7525V49.967Z" fill="#F0B90B" fill-opacity="0.8"/>
</svg>
