<svg width="243" height="75" viewBox="0 0 243 75" fill="none" xmlns="http://www.w3.org/2000/svg">
<path d="M227 67C227 62.5817 230.582 59 235 59C239.418 59 243 62.5817 243 67C243 71.4183 239.418 75 235 75C230.582 75 227 71.4183 227 67ZM-12 0.5H63.8798V3.5H-12V0.5ZM89.3798 26V43H86.3798V26H89.3798ZM111.88 65.5H235V68.5H111.88V65.5ZM89.3798 43C89.3798 55.4264 99.4534 65.5 111.88 65.5V68.5C97.7965 68.5 86.3798 57.0833 86.3798 43H89.3798ZM63.8798 0.5C77.9631 0.5 89.3798 11.9167 89.3798 26H86.3798C86.3798 13.5736 76.3062 3.5 63.8798 3.5V0.5Z" fill="url(#paint0_linear_327_153)"/>
<defs>
<linearGradient id="paint0_linear_327_153" x1="200.8" y1="67" x2="42.0089" y2="-49.923" gradientUnits="userSpaceOnUse">
<stop stop-color="#0E99FE"/>
<stop offset="1" stop-color="#0A0B0C"/>
</linearGradient>
</defs>
</svg>
