<svg width="88" height="84" viewBox="0 0 88 84" fill="none" xmlns="http://www.w3.org/2000/svg">
<path d="M42.4571 4.63298C26.7986 1.7782 8.60722 15.2562 8.60722 26.3413C6.02555 50.3497 19.43 62.8296 39.2333 70.9125C61.9786 76.403 73.5436 73.2218 82.5653 54.7468C83.0348 53.7132 83.4813 52.6354 83.9058 51.5135C85.5177 25.8794 67.5566 8.78989 42.4571 4.63298Z" fill="#0E98FD"/>
<path d="M32.3249 73.2218C8.17303 60.5607 -0.626424 40.6219 4.23205 22.1843C-4.5182 32.3456 -1.75495 66.7555 32.3249 80.3809C56.8648 88.8603 77.8958 80.3004 85.6601 59.3453C78.4396 75.6597 55.9939 82.6766 32.3249 73.2218Z" fill="#044B7D"/>
<path fill-rule="evenodd" clip-rule="evenodd" d="M87.8202 51.5135C88.5886 39.5721 87.1011 33.1087 79.3002 22.1843C68.1978 8.47063 60.4145 4.30922 44.5293 1.39974C24.7262 -2.22729 9.98885 7.17328 4.23205 22.1843C-0.626424 40.6219 8.17303 60.5607 32.3249 73.2218C55.9939 82.6766 78.4396 75.6597 85.6601 59.3453C86.5658 56.9009 87.291 54.2878 87.8202 51.5135ZM8.60722 26.3413C8.60722 15.2562 26.7986 1.7782 42.4571 4.63298C67.5566 8.78989 85.5177 25.8794 83.9058 51.5135C83.4813 52.6354 83.0348 53.7132 82.5653 54.7468C73.5436 73.2218 61.9786 76.403 39.2333 70.9125C19.43 62.8296 6.02555 50.3497 8.60722 26.3413Z" fill="#2774AB"/>
</svg>
