<svg width="3214" height="6607" viewBox="0 0 3214 6607" fill="none" xmlns="http://www.w3.org/2000/svg">
<rect width="1440" height="5937" transform="translate(906 670)" fill="white" fill-opacity="0.96"/>
<g opacity="0.25">
<g filter="url(#filter0_f_16_104)">
<circle cx="867.5" cy="2134.5" r="367.5" fill="#0A7EA4"/>
</g>
<g filter="url(#filter1_f_16_104)">
<circle cx="867.5" cy="2134.5" r="187.5" fill="#73FFBE"/>
</g>
</g>
<g opacity="0.3">
<g filter="url(#filter2_f_16_104)">
<path d="M2586 867.5C2586 1070.46 2421.46 1235 2218.5 1235C2015.54 1235 1851 1070.46 1851 867.5C1851 664.535 2015.54 500 2218.5 500C2421.46 500 2586 664.535 2586 867.5Z" fill="#0A7EA4"/>
</g>
<g filter="url(#filter3_f_16_104)">
<circle cx="2296.5" cy="746.5" r="187.5" fill="#73FFBE"/>
</g>
</g>
<g opacity="0.25">
<g filter="url(#filter4_f_16_104)">
<circle cx="2346.5" cy="3609.5" r="367.5" fill="#0A7EA4"/>
</g>
<g filter="url(#filter5_f_16_104)">
<circle cx="2346.5" cy="3609.5" r="187.5" fill="#73FFBE"/>
</g>
</g>
<g opacity="0.12">
<circle opacity="0.5" cx="2340.5" cy="3572.5" r="140.723" stroke="#0A7EA4" stroke-width="5"/>
<circle opacity="0.5" cx="2340.5" cy="3572.5" r="212.681" stroke="#0A7EA4" stroke-width="5"/>
<circle opacity="0.5" cx="2340.5" cy="3572.5" r="284.638" stroke="#0A7EA4" stroke-width="5"/>
<circle opacity="0.5" cx="2340.5" cy="3572.5" r="355.212" stroke="#0A7EA4" stroke-width="5"/>
<circle opacity="0.5" cx="2340.5" cy="3572.5" r="427.17" stroke="#0A7EA4" stroke-width="5"/>
<circle opacity="0.5" cx="2340.5" cy="3572.5" r="499.127" stroke="#0A7EA4" stroke-width="5"/>
<circle opacity="0.5" cx="2340.5" cy="3572.5" r="571.085" stroke="#0A7EA4" stroke-width="5"/>
<circle opacity="0.5" cx="2340.5" cy="3572.5" r="643.042" stroke="#0A7EA4" stroke-width="5"/>
<circle opacity="0.5" cx="2340.5" cy="3572.5" r="715" stroke="#0A7EA4" stroke-width="5"/>
</g>
<g opacity="0.12">
<circle opacity="0.5" cx="1006.5" cy="1939.5" r="140.723" stroke="#0A7EA4" stroke-width="5"/>
<circle opacity="0.5" cx="1006.5" cy="1939.5" r="212.681" stroke="#0A7EA4" stroke-width="5"/>
<circle opacity="0.5" cx="1006.5" cy="1939.5" r="284.638" stroke="#0A7EA4" stroke-width="5"/>
<circle opacity="0.5" cx="1006.5" cy="1939.5" r="355.212" stroke="#0A7EA4" stroke-width="5"/>
<circle opacity="0.5" cx="1006.5" cy="1939.5" r="427.17" stroke="#0A7EA4" stroke-width="5"/>
<circle opacity="0.5" cx="1006.5" cy="1939.5" r="499.127" stroke="#0A7EA4" stroke-width="5"/>
<circle opacity="0.5" cx="1006.5" cy="1939.5" r="571.085" stroke="#0A7EA4" stroke-width="5"/>
<circle opacity="0.5" cx="1006.5" cy="1939.5" r="643.042" stroke="#0A7EA4" stroke-width="5"/>
<circle opacity="0.5" cx="1006.5" cy="1939.5" r="715" stroke="#0A7EA4" stroke-width="5"/>
</g>
<g opacity="0.12">
<circle opacity="0.5" cx="1006.5" cy="5149.5" r="140.723" stroke="#0A7EA4" stroke-width="5"/>
<circle opacity="0.5" cx="1006.5" cy="5149.5" r="212.681" stroke="#0A7EA4" stroke-width="5"/>
<circle opacity="0.5" cx="1006.5" cy="5149.5" r="284.638" stroke="#0A7EA4" stroke-width="5"/>
<circle opacity="0.5" cx="1006.5" cy="5149.5" r="355.212" stroke="#0A7EA4" stroke-width="5"/>
<circle opacity="0.5" cx="1006.5" cy="5149.5" r="427.17" stroke="#0A7EA4" stroke-width="5"/>
<circle opacity="0.5" cx="1006.5" cy="5149.5" r="499.127" stroke="#0A7EA4" stroke-width="5"/>
<circle opacity="0.5" cx="1006.5" cy="5149.5" r="571.085" stroke="#0A7EA4" stroke-width="5"/>
<circle opacity="0.5" cx="1006.5" cy="5149.5" r="643.042" stroke="#0A7EA4" stroke-width="5"/>
<circle opacity="0.5" cx="1006.5" cy="5149.5" r="715" stroke="#0A7EA4" stroke-width="5"/>
</g>
<g opacity="0.12">
<circle opacity="0.5" cx="2281.5" cy="1017.5" r="140.723" stroke="#0A7EA4" stroke-width="5"/>
<circle opacity="0.5" cx="2281.5" cy="1017.5" r="212.681" stroke="#0A7EA4" stroke-width="5"/>
<circle opacity="0.5" cx="2281.5" cy="1017.5" r="284.638" stroke="#0A7EA4" stroke-width="5"/>
<circle opacity="0.5" cx="2281.5" cy="1017.5" r="355.212" stroke="#0A7EA4" stroke-width="5"/>
<circle opacity="0.5" cx="2281.5" cy="1017.5" r="427.17" stroke="#0A7EA4" stroke-width="5"/>
<circle opacity="0.5" cx="2281.5" cy="1017.5" r="499.127" stroke="#0A7EA4" stroke-width="5"/>
<circle opacity="0.5" cx="2281.5" cy="1017.5" r="571.085" stroke="#0A7EA4" stroke-width="5"/>
<circle opacity="0.5" cx="2281.5" cy="1017.5" r="643.042" stroke="#0A7EA4" stroke-width="5"/>
<circle opacity="0.5" cx="2281.5" cy="1017.5" r="715" stroke="#0A7EA4" stroke-width="5"/>
</g>
<defs>
<filter id="filter0_f_16_104" x="0" y="1267" width="1735" height="1735" filterUnits="userSpaceOnUse" color-interpolation-filters="sRGB">
<feFlood flood-opacity="0" result="BackgroundImageFix"/>
<feBlend mode="normal" in="SourceGraphic" in2="BackgroundImageFix" result="shape"/>
<feGaussianBlur stdDeviation="250" result="effect1_foregroundBlur_16_104"/>
</filter>
<filter id="filter1_f_16_104" x="330" y="1597" width="1075" height="1075" filterUnits="userSpaceOnUse" color-interpolation-filters="sRGB">
<feFlood flood-opacity="0" result="BackgroundImageFix"/>
<feBlend mode="normal" in="SourceGraphic" in2="BackgroundImageFix" result="shape"/>
<feGaussianBlur stdDeviation="175" result="effect1_foregroundBlur_16_104"/>
</filter>
<filter id="filter2_f_16_104" x="1351" y="0" width="1735" height="1735" filterUnits="userSpaceOnUse" color-interpolation-filters="sRGB">
<feFlood flood-opacity="0" result="BackgroundImageFix"/>
<feBlend mode="normal" in="SourceGraphic" in2="BackgroundImageFix" result="shape"/>
<feGaussianBlur stdDeviation="250" result="effect1_foregroundBlur_16_104"/>
</filter>
<filter id="filter3_f_16_104" x="1759" y="209" width="1075" height="1075" filterUnits="userSpaceOnUse" color-interpolation-filters="sRGB">
<feFlood flood-opacity="0" result="BackgroundImageFix"/>
<feBlend mode="normal" in="SourceGraphic" in2="BackgroundImageFix" result="shape"/>
<feGaussianBlur stdDeviation="175" result="effect1_foregroundBlur_16_104"/>
</filter>
<filter id="filter4_f_16_104" x="1479" y="2742" width="1735" height="1735" filterUnits="userSpaceOnUse" color-interpolation-filters="sRGB">
<feFlood flood-opacity="0" result="BackgroundImageFix"/>
<feBlend mode="normal" in="SourceGraphic" in2="BackgroundImageFix" result="shape"/>
<feGaussianBlur stdDeviation="250" result="effect1_foregroundBlur_16_104"/>
</filter>
<filter id="filter5_f_16_104" x="1809" y="3072" width="1075" height="1075" filterUnits="userSpaceOnUse" color-interpolation-filters="sRGB">
<feFlood flood-opacity="0" result="BackgroundImageFix"/>
<feBlend mode="normal" in="SourceGraphic" in2="BackgroundImageFix" result="shape"/>
<feGaussianBlur stdDeviation="175" result="effect1_foregroundBlur_16_104"/>
</filter>
</defs>
</svg>
