<svg width="3013" height="6290" viewBox="0 0 3013 6290" fill="none" xmlns="http://www.w3.org/2000/svg">
<rect width="1440" height="5937" transform="translate(705 353)" fill="white" fill-opacity="0.9"/>
<g opacity="0.3">
<g filter="url(#filter0_f_16_104)">
<path d="M2385 867.5C2385 1070.46 2220.46 1235 2017.5 1235C1814.54 1235 1650 1070.46 1650 867.5C1650 664.535 1814.54 500 2017.5 500C2220.46 500 2385 664.535 2385 867.5Z" fill="#0A7EA4"/>
</g>
<g filter="url(#filter1_f_16_104)">
<circle cx="2017.5" cy="1099.5" r="187.5" fill="#73FFBE"/>
</g>
</g>
<g opacity="0.25">
<g filter="url(#filter2_f_16_104)">
<circle cx="2145.5" cy="3292.5" r="367.5" fill="#0A7EA4"/>
</g>
<g filter="url(#filter3_f_16_104)">
<circle cx="2145.5" cy="3292.5" r="187.5" fill="#73FFBE"/>
</g>
</g>
<g opacity="0.12">
<circle opacity="0.5" cx="2139.5" cy="3255.5" r="140.723" stroke="#0A7EA4" stroke-width="5"/>
<circle opacity="0.5" cx="2139.5" cy="3255.5" r="212.681" stroke="#0A7EA4" stroke-width="5"/>
<circle opacity="0.5" cx="2139.5" cy="3255.5" r="284.638" stroke="#0A7EA4" stroke-width="5"/>
<circle opacity="0.5" cx="2139.5" cy="3255.5" r="355.212" stroke="#0A7EA4" stroke-width="5"/>
<circle opacity="0.5" cx="2139.5" cy="3255.5" r="427.17" stroke="#0A7EA4" stroke-width="5"/>
<circle opacity="0.5" cx="2139.5" cy="3255.5" r="499.127" stroke="#0A7EA4" stroke-width="5"/>
<circle opacity="0.5" cx="2139.5" cy="3255.5" r="571.085" stroke="#0A7EA4" stroke-width="5"/>
<circle opacity="0.5" cx="2139.5" cy="3255.5" r="643.042" stroke="#0A7EA4" stroke-width="5"/>
<circle opacity="0.5" cx="2139.5" cy="3255.5" r="715" stroke="#0A7EA4" stroke-width="5"/>
</g>
<g opacity="0.25">
<g filter="url(#filter4_f_16_104)">
<circle cx="867.5" cy="2314.5" r="367.5" fill="#0A7EA4"/>
</g>
<g filter="url(#filter5_f_16_104)">
<circle cx="867.5" cy="2235.5" r="187.5" fill="#73FFBE"/>
</g>
</g>
<g opacity="0.12">
<circle opacity="0.5" cx="776.5" cy="2285.5" r="140.723" stroke="#0A7EA4" stroke-width="5"/>
<circle opacity="0.5" cx="776.5" cy="2285.5" r="212.681" stroke="#0A7EA4" stroke-width="5"/>
<circle opacity="0.5" cx="776.5" cy="2285.5" r="284.638" stroke="#0A7EA4" stroke-width="5"/>
<circle opacity="0.5" cx="776.5" cy="2285.5" r="355.212" stroke="#0A7EA4" stroke-width="5"/>
<circle opacity="0.5" cx="776.5" cy="2285.5" r="427.17" stroke="#0A7EA4" stroke-width="5"/>
<circle opacity="0.5" cx="776.5" cy="2285.5" r="499.127" stroke="#0A7EA4" stroke-width="5"/>
<circle opacity="0.5" cx="776.5" cy="2285.5" r="571.085" stroke="#0A7EA4" stroke-width="5"/>
<circle opacity="0.5" cx="776.5" cy="2285.5" r="643.042" stroke="#0A7EA4" stroke-width="5"/>
<circle opacity="0.5" cx="776.5" cy="2285.5" r="715" stroke="#0A7EA4" stroke-width="5"/>
</g>
<g opacity="0.12">
<circle opacity="0.5" cx="805.5" cy="4832.5" r="140.723" stroke="#0A7EA4" stroke-width="5"/>
<circle opacity="0.5" cx="805.5" cy="4832.5" r="212.681" stroke="#0A7EA4" stroke-width="5"/>
<circle opacity="0.5" cx="805.5" cy="4832.5" r="284.638" stroke="#0A7EA4" stroke-width="5"/>
<circle opacity="0.5" cx="805.5" cy="4832.5" r="355.212" stroke="#0A7EA4" stroke-width="5"/>
<circle opacity="0.5" cx="805.5" cy="4832.5" r="427.17" stroke="#0A7EA4" stroke-width="5"/>
<circle opacity="0.5" cx="805.5" cy="4832.5" r="499.127" stroke="#0A7EA4" stroke-width="5"/>
<circle opacity="0.5" cx="805.5" cy="4832.5" r="571.085" stroke="#0A7EA4" stroke-width="5"/>
<circle opacity="0.5" cx="805.5" cy="4832.5" r="643.042" stroke="#0A7EA4" stroke-width="5"/>
<circle opacity="0.5" cx="805.5" cy="4832.5" r="715" stroke="#0A7EA4" stroke-width="5"/>
</g>
<g opacity="0.12">
<circle opacity="0.5" cx="2240.5" cy="1100.5" r="140.723" stroke="#0A7EA4" stroke-width="5"/>
<circle opacity="0.5" cx="2240.5" cy="1100.5" r="212.681" stroke="#0A7EA4" stroke-width="5"/>
<circle opacity="0.5" cx="2240.5" cy="1100.5" r="284.638" stroke="#0A7EA4" stroke-width="5"/>
<circle opacity="0.5" cx="2240.5" cy="1100.5" r="355.212" stroke="#0A7EA4" stroke-width="5"/>
<circle opacity="0.5" cx="2240.5" cy="1100.5" r="427.17" stroke="#0A7EA4" stroke-width="5"/>
<circle opacity="0.5" cx="2240.5" cy="1100.5" r="499.127" stroke="#0A7EA4" stroke-width="5"/>
<circle opacity="0.5" cx="2240.5" cy="1100.5" r="571.085" stroke="#0A7EA4" stroke-width="5"/>
<circle opacity="0.5" cx="2240.5" cy="1100.5" r="643.042" stroke="#0A7EA4" stroke-width="5"/>
<circle opacity="0.5" cx="2240.5" cy="1100.5" r="715" stroke="#0A7EA4" stroke-width="5"/>
</g>
<defs>
<filter id="filter0_f_16_104" x="1150" y="0" width="1735" height="1735" filterUnits="userSpaceOnUse" color-interpolation-filters="sRGB">
<feFlood flood-opacity="0" result="BackgroundImageFix"/>
<feBlend mode="normal" in="SourceGraphic" in2="BackgroundImageFix" result="shape"/>
<feGaussianBlur stdDeviation="250" result="effect1_foregroundBlur_16_104"/>
</filter>
<filter id="filter1_f_16_104" x="1480" y="562" width="1075" height="1075" filterUnits="userSpaceOnUse" color-interpolation-filters="sRGB">
<feFlood flood-opacity="0" result="BackgroundImageFix"/>
<feBlend mode="normal" in="SourceGraphic" in2="BackgroundImageFix" result="shape"/>
<feGaussianBlur stdDeviation="175" result="effect1_foregroundBlur_16_104"/>
</filter>
<filter id="filter2_f_16_104" x="1278" y="2425" width="1735" height="1735" filterUnits="userSpaceOnUse" color-interpolation-filters="sRGB">
<feFlood flood-opacity="0" result="BackgroundImageFix"/>
<feBlend mode="normal" in="SourceGraphic" in2="BackgroundImageFix" result="shape"/>
<feGaussianBlur stdDeviation="250" result="effect1_foregroundBlur_16_104"/>
</filter>
<filter id="filter3_f_16_104" x="1608" y="2755" width="1075" height="1075" filterUnits="userSpaceOnUse" color-interpolation-filters="sRGB">
<feFlood flood-opacity="0" result="BackgroundImageFix"/>
<feBlend mode="normal" in="SourceGraphic" in2="BackgroundImageFix" result="shape"/>
<feGaussianBlur stdDeviation="175" result="effect1_foregroundBlur_16_104"/>
</filter>
<filter id="filter4_f_16_104" x="0" y="1447" width="1735" height="1735" filterUnits="userSpaceOnUse" color-interpolation-filters="sRGB">
<feFlood flood-opacity="0" result="BackgroundImageFix"/>
<feBlend mode="normal" in="SourceGraphic" in2="BackgroundImageFix" result="shape"/>
<feGaussianBlur stdDeviation="250" result="effect1_foregroundBlur_16_104"/>
</filter>
<filter id="filter5_f_16_104" x="330" y="1698" width="1075" height="1075" filterUnits="userSpaceOnUse" color-interpolation-filters="sRGB">
<feFlood flood-opacity="0" result="BackgroundImageFix"/>
<feBlend mode="normal" in="SourceGraphic" in2="BackgroundImageFix" result="shape"/>
<feGaussianBlur stdDeviation="175" result="effect1_foregroundBlur_16_104"/>
</filter>
</defs>
</svg>
