<svg width="3069" height="5937" viewBox="0 0 3069 5937" fill="none" xmlns="http://www.w3.org/2000/svg">
<rect width="1440" height="5937" transform="translate(705)" fill="white" fill-opacity="0.9"/>
<g opacity="0.3">
<g filter="url(#filter0_f_16_104)">
<path d="M2569 931.5C2569 1134.46 2404.46 1299 2201.5 1299C1998.54 1299 1834 1134.46 1834 931.5C1834 728.535 1998.54 564 2201.5 564C2404.46 564 2569 728.535 2569 931.5Z" fill="#0A7EA4"/>
</g>
<g filter="url(#filter1_f_16_104)">
<circle cx="2181.5" cy="991.5" r="187.5" fill="#73FFBE"/>
</g>
</g>
<g opacity="0.25">
<g filter="url(#filter2_f_16_104)">
<circle cx="2145.5" cy="2939.5" r="367.5" fill="#0A7EA4"/>
</g>
<g filter="url(#filter3_f_16_104)">
<circle cx="2145.5" cy="2939.5" r="187.5" fill="#73FFBE"/>
</g>
</g>
<g opacity="0.12">
<circle opacity="0.5" cx="2139.5" cy="2902.5" r="140.723" stroke="#0A7EA4" stroke-width="5"/>
<circle opacity="0.5" cx="2139.5" cy="2902.5" r="212.681" stroke="#0A7EA4" stroke-width="5"/>
<circle opacity="0.5" cx="2139.5" cy="2902.5" r="284.638" stroke="#0A7EA4" stroke-width="5"/>
<circle opacity="0.5" cx="2139.5" cy="2902.5" r="355.212" stroke="#0A7EA4" stroke-width="5"/>
<circle opacity="0.5" cx="2139.5" cy="2902.5" r="427.17" stroke="#0A7EA4" stroke-width="5"/>
<circle opacity="0.5" cx="2139.5" cy="2902.5" r="499.127" stroke="#0A7EA4" stroke-width="5"/>
<circle opacity="0.5" cx="2139.5" cy="2902.5" r="571.085" stroke="#0A7EA4" stroke-width="5"/>
<circle opacity="0.5" cx="2139.5" cy="2902.5" r="643.042" stroke="#0A7EA4" stroke-width="5"/>
<circle opacity="0.5" cx="2139.5" cy="2902.5" r="715" stroke="#0A7EA4" stroke-width="5"/>
</g>
<g opacity="0.25">
<g filter="url(#filter4_f_16_104)">
<circle cx="867.5" cy="1961.5" r="367.5" fill="#0A7EA4"/>
</g>
<g filter="url(#filter5_f_16_104)">
<circle cx="867.5" cy="1882.5" r="187.5" fill="#73FFBE"/>
</g>
</g>
<g opacity="0.12">
<circle opacity="0.5" cx="776.5" cy="1932.5" r="140.723" stroke="#0A7EA4" stroke-width="5"/>
<circle opacity="0.5" cx="776.5" cy="1932.5" r="212.681" stroke="#0A7EA4" stroke-width="5"/>
<circle opacity="0.5" cx="776.5" cy="1932.5" r="284.638" stroke="#0A7EA4" stroke-width="5"/>
<circle opacity="0.5" cx="776.5" cy="1932.5" r="355.212" stroke="#0A7EA4" stroke-width="5"/>
<circle opacity="0.5" cx="776.5" cy="1932.5" r="427.17" stroke="#0A7EA4" stroke-width="5"/>
<circle opacity="0.5" cx="776.5" cy="1932.5" r="499.127" stroke="#0A7EA4" stroke-width="5"/>
<circle opacity="0.5" cx="776.5" cy="1932.5" r="571.085" stroke="#0A7EA4" stroke-width="5"/>
<circle opacity="0.5" cx="776.5" cy="1932.5" r="643.042" stroke="#0A7EA4" stroke-width="5"/>
<circle opacity="0.5" cx="776.5" cy="1932.5" r="715" stroke="#0A7EA4" stroke-width="5"/>
</g>
<g opacity="0.12">
<circle opacity="0.5" cx="805.5" cy="4479.5" r="140.723" stroke="#0A7EA4" stroke-width="5"/>
<circle opacity="0.5" cx="805.5" cy="4479.5" r="212.681" stroke="#0A7EA4" stroke-width="5"/>
<circle opacity="0.5" cx="805.5" cy="4479.5" r="284.638" stroke="#0A7EA4" stroke-width="5"/>
<circle opacity="0.5" cx="805.5" cy="4479.5" r="355.212" stroke="#0A7EA4" stroke-width="5"/>
<circle opacity="0.5" cx="805.5" cy="4479.5" r="427.17" stroke="#0A7EA4" stroke-width="5"/>
<circle opacity="0.5" cx="805.5" cy="4479.5" r="499.127" stroke="#0A7EA4" stroke-width="5"/>
<circle opacity="0.5" cx="805.5" cy="4479.5" r="571.085" stroke="#0A7EA4" stroke-width="5"/>
<circle opacity="0.5" cx="805.5" cy="4479.5" r="643.042" stroke="#0A7EA4" stroke-width="5"/>
<circle opacity="0.5" cx="805.5" cy="4479.5" r="715" stroke="#0A7EA4" stroke-width="5"/>
</g>
<g opacity="0.12">
<circle opacity="0.5" cx="2201.5" cy="920.5" r="140.723" stroke="#0A7EA4" stroke-width="5"/>
<circle opacity="0.5" cx="2201.5" cy="920.5" r="212.681" stroke="#0A7EA4" stroke-width="5"/>
<circle opacity="0.5" cx="2201.5" cy="920.5" r="284.638" stroke="#0A7EA4" stroke-width="5"/>
<circle opacity="0.5" cx="2201.5" cy="920.5" r="355.212" stroke="#0A7EA4" stroke-width="5"/>
<circle opacity="0.5" cx="2201.5" cy="920.5" r="427.17" stroke="#0A7EA4" stroke-width="5"/>
<circle opacity="0.5" cx="2201.5" cy="920.5" r="499.127" stroke="#0A7EA4" stroke-width="5"/>
<circle opacity="0.5" cx="2201.5" cy="920.5" r="571.085" stroke="#0A7EA4" stroke-width="5"/>
<circle opacity="0.5" cx="2201.5" cy="920.5" r="643.042" stroke="#0A7EA4" stroke-width="5"/>
<circle opacity="0.5" cx="2201.5" cy="920.5" r="715" stroke="#0A7EA4" stroke-width="5"/>
</g>
<defs>
<filter id="filter0_f_16_104" x="1334" y="64" width="1735" height="1735" filterUnits="userSpaceOnUse" color-interpolation-filters="sRGB">
<feFlood flood-opacity="0" result="BackgroundImageFix"/>
<feBlend mode="normal" in="SourceGraphic" in2="BackgroundImageFix" result="shape"/>
<feGaussianBlur stdDeviation="250" result="effect1_foregroundBlur_16_104"/>
</filter>
<filter id="filter1_f_16_104" x="1644" y="454" width="1075" height="1075" filterUnits="userSpaceOnUse" color-interpolation-filters="sRGB">
<feFlood flood-opacity="0" result="BackgroundImageFix"/>
<feBlend mode="normal" in="SourceGraphic" in2="BackgroundImageFix" result="shape"/>
<feGaussianBlur stdDeviation="175" result="effect1_foregroundBlur_16_104"/>
</filter>
<filter id="filter2_f_16_104" x="1278" y="2072" width="1735" height="1735" filterUnits="userSpaceOnUse" color-interpolation-filters="sRGB">
<feFlood flood-opacity="0" result="BackgroundImageFix"/>
<feBlend mode="normal" in="SourceGraphic" in2="BackgroundImageFix" result="shape"/>
<feGaussianBlur stdDeviation="250" result="effect1_foregroundBlur_16_104"/>
</filter>
<filter id="filter3_f_16_104" x="1608" y="2402" width="1075" height="1075" filterUnits="userSpaceOnUse" color-interpolation-filters="sRGB">
<feFlood flood-opacity="0" result="BackgroundImageFix"/>
<feBlend mode="normal" in="SourceGraphic" in2="BackgroundImageFix" result="shape"/>
<feGaussianBlur stdDeviation="175" result="effect1_foregroundBlur_16_104"/>
</filter>
<filter id="filter4_f_16_104" x="0" y="1094" width="1735" height="1735" filterUnits="userSpaceOnUse" color-interpolation-filters="sRGB">
<feFlood flood-opacity="0" result="BackgroundImageFix"/>
<feBlend mode="normal" in="SourceGraphic" in2="BackgroundImageFix" result="shape"/>
<feGaussianBlur stdDeviation="250" result="effect1_foregroundBlur_16_104"/>
</filter>
<filter id="filter5_f_16_104" x="330" y="1345" width="1075" height="1075" filterUnits="userSpaceOnUse" color-interpolation-filters="sRGB">
<feFlood flood-opacity="0" result="BackgroundImageFix"/>
<feBlend mode="normal" in="SourceGraphic" in2="BackgroundImageFix" result="shape"/>
<feGaussianBlur stdDeviation="175" result="effect1_foregroundBlur_16_104"/>
</filter>
</defs>
</svg>
