<svg width="100" height="100" viewBox="0 0 100 100" fill="none" xmlns="http://www.w3.org/2000/svg">
<path d="M14.3439 14.3439C-2.35823 31.0461 -4.23965 56.2519 7.47508 75.4153C9.24123 78.3045 13.2141 78.5213 15.6085 76.1269L20.0289 71.7065C22.0067 69.7287 22.2011 66.6239 20.8565 64.1712C14.0498 51.7546 15.0349 36.5065 25.6415 25.8998C36.2554 15.286 51.7256 14.0981 64.2264 20.8404C66.6798 22.1636 69.7713 21.9639 71.7424 19.9928L76.1266 15.6086C78.521 13.2142 78.3042 9.24126 75.4151 7.47511C56.2517 -4.23967 31.046 -2.35824 14.3439 14.3439Z" fill="#8F1517"/>
<path d="M80.0011 28.1711C78.0238 30.1484 77.83 33.2519 79.1639 35.7096C85.9837 48.2747 84.6843 63.824 74.1251 74.3832C63.5752 84.9331 48.2266 85.9842 35.77 79.133C33.3136 77.782 30.2003 77.9721 28.218 79.9544L23.7997 84.3727C21.4105 86.7619 21.6201 90.7251 24.4979 92.4958C43.6693 104.292 68.9178 102.315 85.6164 85.6163C102.315 68.9177 104.292 43.6691 92.4958 24.4976C90.7252 21.6198 86.762 21.4102 84.3727 23.7995L80.0011 28.1711Z" fill="#8F1517"/>
</svg>
